<svg display="block" role="presentation" viewBox="0 0 24 24" xmlns="http://www.w3.org/2000/svg"><path d="M 0 1.125 C 0 0.504 0.504 0 1.125 0 L 7.125 0 C 7.746 0 8.25 0.504 8.25 1.125 L 8.25 4.875 C 8.25 5.496 7.746 6 7.125 6 L 1.125 6 C 0.504 6 0 5.496 0 4.875 Z" fill="transparent" height="6px" id="x9XW7zZCc" stroke-dasharray="" stroke-linecap="round" stroke-linejoin="round" stroke-width="1.5" stroke="var(--szd5nr, black)" transform="translate(2.25 6)" width="8.25px"/><path d="M 0 1.125 C 0 0.504 0.504 0 1.125 0 L 6.375 0 C 6.996 0 7.5 0.504 7.5 1.125 L 7.5 9.375 C 7.5 9.996 6.996 10.5 6.375 10.5 L 1.125 10.5 C 0.504 10.5 0 9.996 0 9.375 Z" fill="transparent" height="10.5px" id="xfJI3hMYQ" stroke-dasharray="" stroke-linecap="round" stroke-linejoin="round" stroke-width="1.5" stroke="var(--szd5nr, black)" transform="translate(14.25 7.5)" width="7.5px"/><path d="M 0 1.125 C 0 0.504 0.504 0 1.125 0 L 6.375 0 C 6.996 0 7.5 0.504 7.5 1.125 L 7.5 3.375 C 7.5 3.996 6.996 4.5 6.375 4.5 L 1.125 4.5 C 0.504 4.5 0 3.996 0 3.375 Z" fill="transparent" height="4.5px" id="lr4EYtfNw" stroke-dasharray="" stroke-linecap="round" stroke-linejoin="round" stroke-width="1.5" stroke="var(--szd5nr, black)" transform="translate(3.75 15)" width="7.5px"/></svg>